<mxfile host="app.diagrams.net" modified="2024-07-18T23:23:56.826Z" agent="Mozilla/5.0 (Windows NT 10.0; Win64; x64) AppleWebKit/537.36 (KHTML, like Gecko) Chrome/126.0.0.0 Safari/537.36" etag="37Hhy24XDruDkdUipixx" version="24.7.1" type="device">
  <diagram name="Page-1" id="4sKZJc4JUw5hsLLko4aA">
    <mxGraphModel dx="1195" dy="615" grid="1" gridSize="10" guides="1" tooltips="1" connect="1" arrows="1" fold="1" page="1" pageScale="1" pageWidth="850" pageHeight="1100" math="0" shadow="0">
      <root>
        <mxCell id="0" />
        <mxCell id="1" parent="0" />
        <mxCell id="NYd9pP2huJY2TuLhM3Bg-1" value="Herbs" style="html=1;whiteSpace=wrap;" vertex="1" parent="1">
          <mxGeometry x="50" y="310" width="110" height="50" as="geometry" />
        </mxCell>
        <mxCell id="NYd9pP2huJY2TuLhM3Bg-2" value="Plant" style="html=1;whiteSpace=wrap;" vertex="1" parent="1">
          <mxGeometry x="370" y="40" width="110" height="50" as="geometry" />
        </mxCell>
        <mxCell id="NYd9pP2huJY2TuLhM3Bg-3" value="Trees" style="html=1;whiteSpace=wrap;" vertex="1" parent="1">
          <mxGeometry x="370" y="310" width="110" height="50" as="geometry" />
        </mxCell>
        <mxCell id="NYd9pP2huJY2TuLhM3Bg-4" value="Shrubs" style="html=1;whiteSpace=wrap;" vertex="1" parent="1">
          <mxGeometry x="210" y="310" width="110" height="50" as="geometry" />
        </mxCell>
        <mxCell id="NYd9pP2huJY2TuLhM3Bg-7" value="Climbers" style="html=1;whiteSpace=wrap;" vertex="1" parent="1">
          <mxGeometry x="720" y="310" width="110" height="50" as="geometry" />
        </mxCell>
        <mxCell id="NYd9pP2huJY2TuLhM3Bg-8" value="Creeprs" style="html=1;whiteSpace=wrap;" vertex="1" parent="1">
          <mxGeometry x="540" y="310" width="110" height="50" as="geometry" />
        </mxCell>
        <mxCell id="NYd9pP2huJY2TuLhM3Bg-9" value="" style="endArrow=classic;html=1;rounded=0;exitX=0;exitY=1;exitDx=0;exitDy=0;entryX=1;entryY=0;entryDx=0;entryDy=0;" edge="1" parent="1" source="NYd9pP2huJY2TuLhM3Bg-2" target="NYd9pP2huJY2TuLhM3Bg-1">
          <mxGeometry width="50" height="50" relative="1" as="geometry">
            <mxPoint x="-40" y="120" as="sourcePoint" />
            <mxPoint x="250" y="170" as="targetPoint" />
          </mxGeometry>
        </mxCell>
        <UserObject label="&lt;span role=&quot;presentation&quot; dir=&quot;ltr&quot; style=&quot;padding: 0px; margin: 0px; color: transparent; position: absolute; white-space: pre; cursor: text; transform-origin: 0% 0%; font-style: normal; font-variant-ligatures: normal; font-variant-caps: normal; font-weight: 400; letter-spacing: normal; orphans: 2; text-align: start; text-indent: 0px; text-transform: none; widows: 2; word-spacing: 0px; -webkit-text-stroke-width: 0px; background-color: rgb(255, 255, 255); text-decoration-thickness: initial; text-decoration-style: initial; text-decoration-color: initial; left: 257.657px; top: 307.351px; font-size: 14.8299px; font-family: sans-serif;&quot;&gt; &lt;/span&gt;&lt;span role=&quot;presentation&quot; dir=&quot;ltr&quot; style=&quot;padding: 0px; margin: 0px; color: transparent; position: absolute; white-space: pre; cursor: text; transform-origin: 0% 0%; font-style: normal; font-variant-ligatures: normal; font-variant-caps: normal; font-weight: 400; letter-spacing: normal; orphans: 2; text-align: start; text-indent: 0px; text-transform: none; widows: 2; word-spacing: 0px; -webkit-text-stroke-width: 0px; background-color: rgb(255, 255, 255); text-decoration-thickness: initial; text-decoration-style: initial; text-decoration-color: initial; left: 262.603px; top: 307.95px; font-size: 14.8299px; font-family: monospace; transform: scaleX(0.921943);&quot;&gt;Exe B 312.darwio&lt;/span&gt;" link="&lt;span role=&quot;presentation&quot; dir=&quot;ltr&quot; style=&quot;padding: 0px; margin: 0px; color: transparent; position: absolute; white-space: pre; cursor: text; transform-origin: 0% 0%; font-style: normal; font-variant-ligatures: normal; font-variant-caps: normal; font-weight: 400; letter-spacing: normal; orphans: 2; text-align: start; text-indent: 0px; text-transform: none; widows: 2; word-spacing: 0px; -webkit-text-stroke-width: 0px; background-color: rgb(255, 255, 255); text-decoration-thickness: initial; text-decoration-style: initial; text-decoration-color: initial; left: 257.657px; top: 307.351px; font-size: 14.8299px; font-family: sans-serif;&quot;&gt; &lt;/span&gt;&lt;span role=&quot;presentation&quot; dir=&quot;ltr&quot; style=&quot;padding: 0px; margin: 0px; color: transparent; position: absolute; white-space: pre; cursor: text; transform-origin: 0% 0%; font-style: normal; font-variant-ligatures: normal; font-variant-caps: normal; font-weight: 400; letter-spacing: normal; orphans: 2; text-align: start; text-indent: 0px; text-transform: none; widows: 2; word-spacing: 0px; -webkit-text-stroke-width: 0px; background-color: rgb(255, 255, 255); text-decoration-thickness: initial; text-decoration-style: initial; text-decoration-color: initial; left: 262.603px; top: 307.95px; font-size: 14.8299px; font-family: monospace; transform: scaleX(0.921943);&quot;&gt;Exe B 312.darwio&lt;/span&gt;" id="NYd9pP2huJY2TuLhM3Bg-10">
          <mxCell style="text;whiteSpace=wrap;html=1;" vertex="1" parent="1">
            <mxGeometry x="480" y="180" width="30" height="20" as="geometry" />
          </mxCell>
        </UserObject>
        <mxCell id="NYd9pP2huJY2TuLhM3Bg-12" value="" style="endArrow=classic;html=1;rounded=0;exitX=1;exitY=1;exitDx=0;exitDy=0;entryX=0;entryY=0;entryDx=0;entryDy=0;" edge="1" parent="1" source="NYd9pP2huJY2TuLhM3Bg-2" target="NYd9pP2huJY2TuLhM3Bg-7">
          <mxGeometry width="50" height="50" relative="1" as="geometry">
            <mxPoint x="380" y="100" as="sourcePoint" />
            <mxPoint x="60" y="320" as="targetPoint" />
          </mxGeometry>
        </mxCell>
        <mxCell id="NYd9pP2huJY2TuLhM3Bg-13" value="" style="endArrow=classic;html=1;rounded=0;exitX=0.25;exitY=1;exitDx=0;exitDy=0;entryX=0.5;entryY=0;entryDx=0;entryDy=0;" edge="1" parent="1" source="NYd9pP2huJY2TuLhM3Bg-2" target="NYd9pP2huJY2TuLhM3Bg-4">
          <mxGeometry width="50" height="50" relative="1" as="geometry">
            <mxPoint x="380" y="100" as="sourcePoint" />
            <mxPoint x="60" y="320" as="targetPoint" />
          </mxGeometry>
        </mxCell>
        <mxCell id="NYd9pP2huJY2TuLhM3Bg-14" value="" style="endArrow=classic;html=1;rounded=0;exitX=0.75;exitY=1;exitDx=0;exitDy=0;entryX=0.5;entryY=0;entryDx=0;entryDy=0;" edge="1" parent="1" source="NYd9pP2huJY2TuLhM3Bg-2" target="NYd9pP2huJY2TuLhM3Bg-8">
          <mxGeometry width="50" height="50" relative="1" as="geometry">
            <mxPoint x="390" y="110" as="sourcePoint" />
            <mxPoint x="70" y="330" as="targetPoint" />
          </mxGeometry>
        </mxCell>
        <mxCell id="NYd9pP2huJY2TuLhM3Bg-15" value="" style="endArrow=classic;html=1;rounded=0;exitX=0.5;exitY=1;exitDx=0;exitDy=0;entryX=0.5;entryY=0;entryDx=0;entryDy=0;" edge="1" parent="1" source="NYd9pP2huJY2TuLhM3Bg-2" target="NYd9pP2huJY2TuLhM3Bg-3">
          <mxGeometry width="50" height="50" relative="1" as="geometry">
            <mxPoint x="408" y="100" as="sourcePoint" />
            <mxPoint x="275" y="320" as="targetPoint" />
          </mxGeometry>
        </mxCell>
        <mxCell id="NYd9pP2huJY2TuLhM3Bg-18" value="Abelia" style="html=1;whiteSpace=wrap;" vertex="1" parent="1">
          <mxGeometry x="110" y="460" width="110" height="50" as="geometry" />
        </mxCell>
        <mxCell id="NYd9pP2huJY2TuLhM3Bg-19" value="Acer" style="html=1;whiteSpace=wrap;" vertex="1" parent="1">
          <mxGeometry x="310" y="460" width="110" height="50" as="geometry" />
        </mxCell>
        <mxCell id="NYd9pP2huJY2TuLhM3Bg-20" value="" style="endArrow=classic;html=1;rounded=0;exitX=0;exitY=1;exitDx=0;exitDy=0;entryX=0.5;entryY=0;entryDx=0;entryDy=0;" edge="1" parent="1" source="NYd9pP2huJY2TuLhM3Bg-4" target="NYd9pP2huJY2TuLhM3Bg-18">
          <mxGeometry width="50" height="50" relative="1" as="geometry">
            <mxPoint x="408" y="100" as="sourcePoint" />
            <mxPoint x="275" y="320" as="targetPoint" />
          </mxGeometry>
        </mxCell>
        <mxCell id="NYd9pP2huJY2TuLhM3Bg-21" value="" style="endArrow=classic;html=1;rounded=0;exitX=1;exitY=1;exitDx=0;exitDy=0;entryX=0.5;entryY=0;entryDx=0;entryDy=0;" edge="1" parent="1" source="NYd9pP2huJY2TuLhM3Bg-4" target="NYd9pP2huJY2TuLhM3Bg-19">
          <mxGeometry width="50" height="50" relative="1" as="geometry">
            <mxPoint x="220" y="370" as="sourcePoint" />
            <mxPoint x="175" y="470" as="targetPoint" />
          </mxGeometry>
        </mxCell>
      </root>
    </mxGraphModel>
  </diagram>
</mxfile>
